HIERARCHY
ROOT Hips
{
	OFFSET 0.000000 0.000000 0.000000
	CHANNELS 6 Xposition Yposition Zposition Zrotation Yrotation Xrotation 
	JOINT LHipJoint
	{
		OFFSET 0.000000 0.000000 0.000000
		CHANNELS 3 Zrotation Yrotation Xrotation
		JOINT LeftUpLeg
		{
			OFFSET 1.363060 -1.794630 0.839290
			CHANNELS 3 Zrotation Yrotation Xrotation
			JOINT LeftLeg
			{
				OFFSET 2.448110 -6.726130 0.000000
				CHANNELS 3 Zrotation Yrotation Xrotation
				JOINT LeftFoot
				{
					OFFSET 2.562200 -7.039590 0.000000
					CHANNELS 3 Zrotation Yrotation Xrotation
					JOINT LeftToeBase
					{
						OFFSET 0.157640 -0.433110 2.322550
						CHANNELS 3 Zrotation Yrotation Xrotation
						End Site
						{
							OFFSET 0.000000 0.000000 0.000000
						}
					}
				}
			}
		}
	}
	JOINT RHipJoint
	{
		OFFSET 0.000000 0.000000 0.000000
		CHANNELS 3 Zrotation Yrotation Xrotation
		JOINT RightUpLeg
		{
			OFFSET -1.305520 -1.794630 0.839290
			CHANNELS 3 Zrotation Yrotation Xrotation
			JOINT RightLeg
			{
				OFFSET -2.542530 -6.985550 0.000000
				CHANNELS 3 Zrotation Yrotation Xrotation
				JOINT RightFoot
				{
					OFFSET -2.568260 -7.056230 0.000000
					CHANNELS 3 Zrotation Yrotation Xrotation
					JOINT RightToeBase
					{
						OFFSET -0.164730 -0.452590 2.363150
						CHANNELS 3 Zrotation Yrotation Xrotation
						End Site
						{
							OFFSET 0.000000 0.000000 0.000000
						}
					}
				}
			}
		}
	}
	JOINT LowerBack
	{
		OFFSET 0.000000 0.000000 0.000000
		CHANNELS 3 Zrotation Yrotation Xrotation
		JOINT Spine
		{
			OFFSET 0.028270 2.035590 -0.193380
			CHANNELS 3 Zrotation Yrotation Xrotation
			JOINT Spine1
			{
				OFFSET 0.056720 2.048850 -0.042750
				CHANNELS 3 Zrotation Yrotation Xrotation
				JOINT Neck
				{
					OFFSET 0.000000 0.000000 0.000000
					CHANNELS 3 Zrotation Yrotation Xrotation
					JOINT Neck1
					{
						OFFSET -0.054170 1.746240 0.172020
						CHANNELS 3 Zrotation Yrotation Xrotation
						JOINT Head
						{
							OFFSET 0.104070 1.761360 -0.123970
							CHANNELS 3 Zrotation Yrotation Xrotation
							End Site
							{
								OFFSET 0.000000 0.000000 0.000000
							}
						}
					}
				}
				JOINT LeftShoulder
				{
					OFFSET 0.000000 0.000000 0.000000
					CHANNELS 3 Zrotation Yrotation Xrotation
					JOINT LeftArm
					{
						OFFSET 3.362410 1.200890 -0.311210
						CHANNELS 3 Zrotation Yrotation Xrotation
						JOINT LeftForeArm
						{
							OFFSET 4.983000 -0.000000 -0.000000
							CHANNELS 3 Zrotation Yrotation Xrotation
							JOINT LeftHand
							{
								OFFSET 3.483560 -0.000000 -0.000000
								CHANNELS 3 Zrotation Yrotation Xrotation
								JOINT LeftFingerBase
								{
									OFFSET 0.000000 0.000000 0.000000
									CHANNELS 3 Zrotation Yrotation Xrotation
									JOINT LeftHandIndex1
									{
										OFFSET 0.715260 -0.000000 -0.000000
										CHANNELS 3 Zrotation Yrotation Xrotation
										End Site
										{
											OFFSET 0.000000 0.000000 0.000000
										}
									}
								}
								JOINT LThumb
								{
									OFFSET 0.000000 0.000000 0.000000
									CHANNELS 3 Zrotation Yrotation Xrotation
									End Site
									{
										OFFSET 0.000000 0.000000 0.000000
									}
								}
							}
						}
					}
				}
				JOINT RightShoulder
				{
					OFFSET 0.000000 0.000000 0.000000
					CHANNELS 3 Zrotation Yrotation Xrotation
					JOINT RightArm
					{
						OFFSET -3.136600 1.374050 -0.404650
						CHANNELS 3 Zrotation Yrotation Xrotation
						JOINT RightForeArm
						{
							OFFSET -5.241900 -0.000000 -0.000000
							CHANNELS 3 Zrotation Yrotation Xrotation
							JOINT RightHand
							{
								OFFSET -3.444170 -0.000000 -0.000000
								CHANNELS 3 Zrotation Yrotation Xrotation
								JOINT RightFingerBase
								{
									OFFSET 0.000000 0.000000 0.000000
									CHANNELS 3 Zrotation Yrotation Xrotation
									JOINT RightHandIndex1
									{
										OFFSET -0.622530 -0.000000 -0.000000
										CHANNELS 3 Zrotation Yrotation Xrotation
										End Site
										{
											OFFSET 0.000000 0.000000 0.000000
										}
									}
								}
								JOINT RThumb
								{
									OFFSET 0.000000 0.000000 0.000000
									CHANNELS 3 Zrotation Yrotation Xrotation
									End Site
									{
										OFFSET 0.000000 0.000000 0.000000
									}
								}
							}
						}
					}
				}
			}
		}
	}
}
MOTION
Frames: 4
Frame Time: 0.008333
2.733783 17.046163 0.333357 172.029557 -79.900616 -166.398641 -11.256230 2.229952 0.042065 -4.308916 20.412680 -13.716986 -1.657927 -0.161943 17.552937 2.568996 17.203443 -7.022304 0.161199 -0.000000 -44.462600 9.953983 -2.120488 2.634675 0.825550 -3.002261 -16.744696 1.828729 -0.988067 23.353772 -0.114052 1.742574 -6.392036 -0.016699 -0.000000 -72.705100 -4.389879 -1.375779 -5.293488 -1.185318 -1.186697 -3.414576 -4.181942 -1.279063 2.035126 10.756750 -18.367869 -10.134382 -0.336240 0.012272 -0.588119 0.000000 0.000000 0.000000 7.168434 18.867213 0.738104 -42.208197 8.600537 -15.214822 -179.310536 -79.403675 -179.995448 0.350136 -5.153548 -0.018585 -0.054139 0.448872 0.000000 0.000000 0.000000 0.000000 0.000000 0.000000 0.000000 1.757688 -11.351625 -1.751528 33.887047 12.941963 -12.573216 -179.790397 70.738512 179.923326 -8.746342 8.172840 -0.682960 0.115595 -0.630184 -0.000000 0.000000 0.000000 0.000000 0.000000 0.000000 0.000000 
2.672719 17.075105 0.348184 173.107915 -78.918399 -167.603636 -11.338325 2.416665 0.148128 -4.230010 21.117617 -12.836273 -1.673707 -0.245126 16.118731 2.563869 17.419073 -6.457272 0.342500 0.000000 -44.379500 9.890419 -2.229485 2.879730 0.788355 -2.697403 -16.117941 1.870514 -0.851502 21.993824 -0.001769 2.287057 -5.680368 0.003300 0.000000 -73.012300 -3.911527 -1.361374 -5.789346 -1.066083 -1.216563 -3.515000 -4.112067 -1.314776 2.048572 10.902665 -18.614820 -10.258665 -0.320788 0.015130 -0.617449 0.000000 0.000000 0.000000 7.058071 18.957529 0.704411 -42.808261 9.166831 -15.081466 -179.297687 -79.349438 -179.994434 0.173694 -4.952086 -0.009356 -0.051222 0.441924 0.000000 0.000000 0.000000 0.000000 0.000000 0.000000 0.000000 1.946590 -11.511415 -1.739006 33.702745 12.981873 -12.545484 -179.813696 70.595199 179.924412 -8.672605 8.087447 -0.670454 0.116179 -0.627557 -0.000000 0.000000 0.000000 0.000000 0.000000 0.000000 0.000000 
2.609385 17.106256 0.364228 174.138652 -77.972005 -168.737380 -11.427811 2.608037 0.271690 -4.131404 21.805298 -11.949709 -1.686817 -0.332718 14.579844 2.553091 17.622123 -5.809353 0.555200 -0.000000 -44.308700 9.817986 -2.348113 3.130523 0.785274 -2.410361 -15.436510 1.920459 -0.702626 20.471300 0.109783 2.806920 -4.873398 0.033600 -0.000000 -73.337000 -3.373541 -1.352161 -6.302849 -0.933380 -1.257179 -3.620122 -4.037891 -1.360612 2.056084 11.036869 -18.879072 -10.387566 -0.305627 0.018072 -0.648401 0.000000 0.000000 0.000000 6.967874 18.993873 0.668396 -43.329526 9.650522 -14.913563 -179.286407 -79.287719 -179.993629 0.021295 -4.728861 -0.001826 -0.048449 0.435544 0.000000 0.000000 0.000000 0.000000 0.000000 0.000000 0.000000 2.133335 -11.695995 -1.715295 33.469070 13.015866 -12.557099 -179.840064 70.451762 179.925687 -8.580522 7.992684 -0.655954 0.116629 -0.624594 -0.000000 0.000000 0.000000 0.000000 0.000000 0.000000 0.000000 
2.544498 17.138755 0.381189 175.130731 -77.066816 -169.809649 -11.524935 2.802635 0.408145 -4.012441 22.483767 -11.070352 -1.698809 -0.422233 12.963134 2.534584 17.797354 -5.086561 0.795700 0.000000 -44.255600 9.736900 -2.474805 3.385841 0.815053 -2.135249 -14.705227 1.978009 -0.543200 18.805618 0.218586 3.288420 -3.978855 0.074500 0.000000 -73.670901 -2.782131 -1.348985 -6.826874 -0.788476 -1.308947 -3.729035 -3.960020 -1.416745 2.055936 11.158930 -19.158653 -10.519216 -0.290669 0.021095 -0.680624 0.000000 0.000000 0.000000 6.907744 18.964150 0.630649 -43.759026 10.044331 -14.705780 -179.277626 -79.226022 -179.993073 -0.097386 -4.489864 0.003506 -0.045939 0.429935 -0.000000 0.000000 0.000000 0.000000 0.000000 0.000000 0.000000 2.315040 -11.906164 -1.680227 33.186822 13.051163 -12.612655 -179.868595 70.309550 179.927064 -8.478805 7.891906 -0.640457 0.117121 -0.621443 -0.000000 0.000000 0.000000 0.000000 0.000000 0.000000 0.000000 
